<?xml version="1.0" encoding="UTF-8"?>
<svg id="_Слой_1" data-name="Слой 1" xmlns="http://www.w3.org/2000/svg" viewBox="0 0 226.77 226.77">
  <defs>
    <style>
      .cls-1 {
        fill: #fe9;
      }
    </style>
  </defs>
  <path class="cls-1" d="m100.08,120.79c-1.78-.34-3.27.08-3.39,2.07-.11,1.81-1.34,2.97-1.98,4.46-1.57,3.65-3.01,7.38-4.83,10.9-1.38,2.67-3.12,5.16-5.2,7.43-4.3,4.69-8.38,9.57-12.54,14.39-.59.68-.38,1.84-1.35,2.31,0,2.23,0,4.46,0,6.93h-9.55c-.2-2.47,1.04-4.27,2.89-6.01-.54-3.82.56-7.3,2.77-10.63,1.28-1.93,1.96-4.27,2.81-6.47,1.61-4.14,3.58-8.01,7.09-10.94,1.69-1.41,2.19-3.39,2.73-5.57.95-3.84.66-7.68.84-11.2.84-1.7,2.81-1.27,3.66-3.54.31-1.66,1.19-4.18,2.94-5.93,1.9-1.9,2.24-4.2,3.22-6.68-1.09-1.09-2.18-2.18-3.45-3.46,2.88-3.3,2.36-8.02,5.37-11.53.16-.27.68-.06,1.13-.11.45-.05.97.19,1.41-.24,3.47-5.45,4.03-12.93,10.99-16.11h5.12q-.05-2.36-1.64-4.17v-4.88c1.38-1.27,2.89-2.66,4.66-4.28,8.69-.95,12.6,2.9,14.43,9.83-.42,1.39-1.87,1.41-2.84,2.12v1.89c.2.16.42.51.65.51,9.56.03,19.12.03,28.68.02,1.07,0,2.31.42,2.77-1.39,2.51,2.22,5.3,1.06,7.91,1.49.05.56.1.99.17,1.77h-6.54c-.12,1.08-.21,1.84-.31,2.76h-17.43q-1.61,2.08-1.59,12.17c-1.34.19-2.19,1.67-3.69,1.4-1.45,0-1.66-1.9-3.06-1.92-.27.13-.73.22-.77.39-.46,2.21-1.78,3.85-3.49,5.32h-4.87c-.4-.48-.91-1.09-1.21-1.44-1.34-.71-2.45-.37-3.74-.41v5.87c-2.21,2.11-3.07,4.69-4.28,7.21-.83.4-1.97.57-2.59,1.72v5.47c4.44,6.1,7.24,13.09,11.23,19.15.89,4-.63,7.19-2.31,10.55-2.3,4.59-3.68,9.63-6.07,14.21-.19.37-.03.92-.03,1.36q-2.11,1.11-3.83,4.13c1.01,3.97,5.78,2.86,7.59,5.35.23,1.31-.72,1.59-1.15,2.33h-15.99c.06-2.68-.12-5.28.84-8.05,1.42-4.08,2.39-8.31,3.12-12.61.37-2.16.15-5.04,2.71-6.49.37-2.7,3.03-4.51,2.87-7.41-5.26-3.42-6.99-9.58-10.91-14.04Z"/>
</svg>