<?xml version="1.0" encoding="UTF-8"?>
<svg id="_Слой_1" data-name="Слой 1" xmlns="http://www.w3.org/2000/svg" viewBox="0 0 226.77 226.77">
  <defs>
    <style>
      .cls-1 {
        fill: #fe9;
      }
    </style>
  </defs>
  <path class="cls-1" d="m121.24,57.03c-.74.45-1.23.75-1.97,1.2,1.24.32,2.25.59,3.26.85,1.1.29,2.23.26,2.75,1.75.39,1.13,3.62.79,4.5-.35.14-.18.24-.38.33-.59,1.6-3.77,1.94-2.85,4.97-2.64,4.7.32,9.41.56,14.12.63,1.91.03,3.33.24,3.54,2.48.02.19.25.35.61.83.61-.73,1.19-1.35,1.67-2.04.56-.8,1.22-1.28,2.1-.64,1.32.96,2.74.83,4.2.63,2.05-.28,4.07-.41,5.59,1.41.07.08.19.12.28.18.72.46,1.96.82,2.07,1.39.24,1.27-.08,2.65-.19,3.98-.12,1.42-.58,2.9-.34,4.26,1.37,7.78.76,15.6.73,23.4,0,.44-.54,1-.98,1.28-.55.36-1.36.35-1.85.75-.42.34-.91,1.18-.76,1.54.49,1.18.03,1.96-.7,2.72-.99,1.03-1,2.04-.06,3.12.63.72,1.34,1.43,1.72,2.28.62,1.41,1.29,2.9,1.41,4.39.19,2.34.08,4.73-.17,7.07-.16,1.45-.82,2.84-1.34,4.53.7.05,1.66.12,2.78.2v46.03c-.81-.44-1.52-.82-2.23-1.2-2.6-1.41-5.38-1.48-8.19-.92-.78.16-1.81.47-.55,1.86-1.19.2-2.23.59-3.22.5-4.17-.42-8.33-.99-12.5-1.48-.41-.05-.84.1-1.26.19-1.52.33-3.02.89-4.55.96-5,.23-10,.26-15,.42-1,.03-2.08.09-2.98.47-1.52.64-2.96.21-4.41.25-1.94.06-3.65-.95-5.48-.6-.87.16-1.85.57-2.45,1.19-.97,1-1.79.9-2.58.04-.91-.98-1.67-2.1-2.57-2.71-2.15-.43-4.28-.99-6.45-1.25-1.62-.2-3.37-.33-4.92.05-2.67.65-5.24.98-7.87,0-.16-.06-.33-.11-.49-.11-2.73-.02-5.47-.15-8.2,0-2.99.16-5.97.56-8.96.86-.11.01-.27.06-.33,0-1.64-1.44-3.9-.7-5.64-1.63-.64-.34-1.33-1.32-1.34-2.02-.06-4.77.11-9.54.09-14.31-.01-2.25.34-4.2,1.7-6.17.95-1.37,1.15-3.36,1.37-5.11.19-1.54.15-3.18-.17-4.7-.23-1.11-1.07-2.1-1.63-3.15-.31-.6-.82-1.21-.85-1.83-.12-2.92-.22-5.85-.09-8.77.05-1.14.49-2.43,1.16-3.36,1.51-2.1,2.56-3.96.72-6.51-1.16-1.62-1.09-3.68-.74-5.71.25-1.44.26-2.99.04-4.44-.52-3.49-1.58-6.94-1.78-10.44-.19-3.37.31-6.81.72-10.19.55-4.53,1.12-9.01-.09-13.55-.33-1.25-.12-2.7.12-4.01.09-.47.98-1.12,1.52-1.13,7.81-.15,15.63-.21,23.44-.3,1.4-.02,2.85-.23,3.77,1.26.12.19.49.29.76.31,3.25.28,6.47.46,9.64-.71,1.12-.41,2.43-.3,3.64-.47,1.04-.14,2.17-.14,2.46-1.58.05-.26.66-.58,1.02-.59,5.28-.16,10.57-.28,15.85-.39.3,0,.61.15,1.2.3Zm-50.71,23.13c.07.11.17.31.31.47,5.55,5.93,11.07,11.9,16.68,17.78,4.38,4.59,8.96,9,13.3,13.62,4.41,4.7,8.57,9.64,12.99,14.33,3.48,3.7,7.55,6.79,10.85,10.75,3.78,4.52,8.14,8.55,12.26,12.78.38.39.86.9,1.34.94,3.69.32,7.38.63,11.07.74,1.48.04,2.72-.86,3.19-2.36,1.75-5.63,3.43-11.28,5.14-16.92.36-1.19-.03-1.96-1.11-2.64-2.24-1.4-4.45-2.86-6.57-4.43-2.03-1.49-4.21-2.71-6.19-4.32-4.14-3.36-8.65-6.25-13.08-9.23-11.1-7.48-22.26-14.86-33.35-22.36-2.28-1.55-4.91-2.36-6.92-4.63-2.26-2.55-5.54-4.19-8.3-6.3-1.92-1.47-3.91-1.54-6.03-.64-1.85.78-3.69,1.6-5.58,2.43Zm8.68,45.88c-2.41,6.38-4.67,12.3-6.85,18.26-.16.43.15,1.29.53,1.63,1.47,1.3,3.22,2.31,4.57,3.72,2.65,2.76,5.71,3.7,9.41,2.94,1.19-.24,2.49-.08,3.65-.41,1.58-.46,3.07-1.22,4.61-1.84,2.13-.86,4.26-1.7,6.62-2.65-7.51-7.21-14.83-14.24-22.55-21.65Zm68.16-27.29c0-1.68-.2-2.99.04-4.21.48-2.4,1.23-4.75,1.82-7.13.72-2.9-.08-4.94-2.5-6.55-.98-.65-2-1.26-2.93-1.98-.93-.72-1.8-.78-2.95-.46-3.66,1.01-7.39,1.81-11.07,2.76-1.57.41-3.1.98-4.82,1.54.41.49.49.64.62.74,6.26,4.83,12.51,9.69,18.83,14.45.74.56,1.89.56,2.96.85Z"/>
</svg>