<svg id="Слой_1" data-name="Слой 1" xmlns="http://www.w3.org/2000/svg" xmlns:xlink="http://www.w3.org/1999/xlink" viewBox="0 0 1905.66 3362.49"><defs><style>.cls-1{fill:none;}.cls-2{clip-path:url(#clip-path);}.cls-3{fill:#1d1635;}.cls-4{clip-path:url(#clip-path-2);}.cls-5{fill:#736daf;}.cls-6{clip-path:url(#clip-path-3);}.cls-7{fill:url(#Безымянный_градиент);}.cls-8{fill:#261c44;}</style><clipPath id="clip-path" transform="translate(-0.46)"><rect class="cls-1" width="1860.28" height="3360.89"/></clipPath><clipPath id="clip-path-2" transform="translate(-0.46)"><rect class="cls-1" width="1860.28" height="3360.89"/></clipPath><clipPath id="clip-path-3" transform="translate(-0.46)"><path class="cls-1" d="M495.09,1975.49A468.66,468.66,0,0,0,269.46,2217.3c60.43-104.28,180.63-166,306.79-146.14,163.92,25.86,275.81,179.67,250,343.58a301.56,301.56,0,0,1-15.06,57.75l840.64,1a37.68,37.68,0,0,0,37.67-37.67V2014.16a44,44,0,0,0-36-40.67l-1158.37,2"/></clipPath><linearGradient id="Безымянный_градиент" y1="3360.93" x2="1" y2="3360.93" gradientTransform="matrix(1420, 0, 0, -1420, 455.47, 4774737.21)" gradientUnits="userSpaceOnUse"><stop offset="0" stop-color="#f2f2f2"/><stop offset="0.37" stop-color="#f2f2f2"/><stop offset="0.46" stop-color="#ededf0"/><stop offset="0.58" stop-color="#e0dfe8"/><stop offset="0.7" stop-color="#c9c7dc"/><stop offset="0.83" stop-color="#aaa6cc"/><stop offset="0.96" stop-color="#817cb7"/><stop offset="1" stop-color="#736daf"/></linearGradient></defs><title>fon2</title><g class="cls-2"><rect class="cls-3" width="1859.82" height="3360.89"/><g class="cls-4"><path class="cls-5" d="M1651.79,2473H210.13a37.67,37.67,0,0,1-37.67-37.67V2013.66A37.66,37.66,0,0,1,210.13,1976H1651.79a37.67,37.67,0,0,1,37.67,37.67v421.66a37.68,37.68,0,0,1-37.67,37.67" transform="translate(-0.46)"/></g><g class="cls-6"><rect class="cls-7" x="239.66" y="1651.69" width="1479.59" height="1143.6" transform="translate(-981.84 788.79) rotate(-30.03)"/></g><g class="cls-4"><path class="cls-8" d="M1860.21,2814.92q-.43,273.78-.89,547.57H.76q.47-439.78.92-879.58c99.33,73.91,252.2,171.91,455.92,244.9C549,2760.55,683.4,2800,930,2826.54c216,23.23,534.16,38.22,930.23-11.62" transform="translate(-0.46)"/></g><g class="cls-4"><path class="cls-8" d="M1860.46,655.61V2241.48c-71.44-95.18-212.54-256.44-442.72-372-193.45-97.11-363.62-118.66-472.76-129q-10-.95-19.36-1.79a1612.39,1612.39,0,0,0-307.75,1.79C350.89,1767.43,135,1854.64.46,1920.83V335C71.9,430.13,213,591.4,443.18,707,648.48,810,827.55,828,935.3,837.73c408.24,37,742-92,925.16-182.12" transform="translate(-0.46)"/></g></g></svg>