<svg id="Слой_1" data-name="Слой 1" xmlns="http://www.w3.org/2000/svg" xmlns:xlink="http://www.w3.org/1999/xlink" viewBox="0 0 207.45 77.44"><defs><style>.cls-1{fill:none;}.cls-2{clip-path:url(#clip-path);}.cls-3{clip-path:url(#clip-path-2);}.cls-4{fill:#261c44;}.cls-5{fill:#fe9;}.cls-6{fill:#736daf;}</style><clipPath id="clip-path" transform="translate(-176.96 -35.45)"/><clipPath id="clip-path-2" transform="translate(-176.96 -35.45)"><rect class="cls-1" width="1860.28" height="3360.89"/></clipPath></defs><title>logo-up</title><g class="cls-2"><g class="cls-3"><path class="cls-4" d="M177,74.17a38.49,38.49,0,0,0,38.25,38.72c21.12,0,38.25-17.34,38.25-38.72a38.25,38.25,0,1,0-76.5,0" transform="translate(-176.96 -35.45)"/><path class="cls-5" d="M245.16,81.27a30.74,30.74,0,1,1,0-14.21,19.72,19.72,0,1,0,0,14.21" transform="translate(-176.96 -35.45)"/><path class="cls-6" d="M240.48,63.23V85.28a17.34,17.34,0,0,1-4.32,3.78V68.21l-7.55,17.58h-3.09L218,68.64V88.78a17.24,17.24,0,0,1-4.32-4.07V63.8a17.13,17.13,0,0,1,4.68-4.3l8.74,19.87,8.64-19.66a.39.39,0,0,1,.58-.18,17,17,0,0,1,4.19,3.7" transform="translate(-176.96 -35.45)"/><path class="cls-6" d="M278.55,66.14a9,9,0,0,1-4.29.93,6.85,6.85,0,0,1-5.32-2.18,8.11,8.11,0,0,1-2-5.71A8.5,8.5,0,0,1,269.19,53a7.53,7.53,0,0,1,5.69-2.35,8.89,8.89,0,0,1,3.67.66V54a6.31,6.31,0,0,0-3.4-1,5.23,5.23,0,0,0-4,1.65,6.18,6.18,0,0,0-1.54,4.4A5.91,5.91,0,0,0,271,63.22a4.92,4.92,0,0,0,3.78,1.55,6.52,6.52,0,0,0,3.74-1.06Z" transform="translate(-176.96 -35.45)"/><path class="cls-6" d="M296.39,58.75a8.71,8.71,0,0,1-.62,3.26A8.31,8.31,0,0,1,294,64.75a8.54,8.54,0,0,1-2.71,1.85A8.36,8.36,0,0,1,280.35,62a8.69,8.69,0,0,1-.62-3.27,8.78,8.78,0,0,1,.62-3.28,8.43,8.43,0,0,1,1.81-2.75,8.33,8.33,0,0,1,9.1-1.84A8.12,8.12,0,0,1,294,52.72a8.54,8.54,0,0,1,1.82,2.77,8.71,8.71,0,0,1,.62,3.26m-2.64,0a6.35,6.35,0,0,0-.43-2.34,6.14,6.14,0,0,0-1.24-2,5.6,5.6,0,0,0-1.82-1.31,5.51,5.51,0,0,0-2.19-.46,5.44,5.44,0,0,0-2.19.46A5.64,5.64,0,0,0,284,54.44a6,6,0,0,0-1.23,2,6.58,6.58,0,0,0-.43,2.35,6.46,6.46,0,0,0,.43,2.32A6.18,6.18,0,0,0,284,63a5.64,5.64,0,0,0,1.85,1.31,5.36,5.36,0,0,0,2.19.45,5.29,5.29,0,0,0,2.16-.45A5.74,5.74,0,0,0,292.08,63a6.23,6.23,0,0,0,1.67-4.28" transform="translate(-176.96 -35.45)"/><polygon class="cls-6" points="120.11 31.36 128.59 17.41 121.53 17.41 121.53 15.17 132.75 15.17 124.35 29.01 132.86 29.01 132.86 31.36 120.11 31.36"/><path class="cls-6" d="M315.6,66.81V59.4l-5.25-8.78H313l3.27,5.49c.08.14.18.33.29.56s.24.47.36.74a7,7,0,0,1,.32-.73,4.67,4.67,0,0,1,.34-.63l3.35-5.43h2.54l-5.37,8.78v7.41Z" transform="translate(-176.96 -35.45)"/><path class="cls-6" d="M296.11,97.13h-5.69V81.22c0-1.72.07-3.62.21-5.69h-.14a28.85,28.85,0,0,1-.81,3.52l-6,18.08H279l-6.1-17.89a35.19,35.19,0,0,1-.81-3.71h-.16c.16,2.62.23,4.92.23,6.9v14.7h-5.19V70.54h8.44l5.23,15.76a23.61,23.61,0,0,1,.92,3.8h.1a37.51,37.51,0,0,1,1-3.83l5.23-15.73h8.23Z" transform="translate(-176.96 -35.45)"/><path class="cls-6" d="M326.61,83.84a14.53,14.53,0,0,1-1,5.49,14.09,14.09,0,0,1-3,4.58A14.42,14.42,0,0,1,318,97a13.79,13.79,0,0,1-10.7,0,13.85,13.85,0,0,1-4.51-3.09,13.63,13.63,0,0,1-3.06-4.6,14.83,14.83,0,0,1,0-11,14.4,14.4,0,0,1,7.57-7.67,13.45,13.45,0,0,1,5.36-1.09A13.6,13.6,0,0,1,318,70.68a13.89,13.89,0,0,1,4.54,3.08,14.11,14.11,0,0,1,3,4.59,14.53,14.53,0,0,1,1,5.49m-14,8a6.16,6.16,0,0,0,4.9-2.26,9.3,9.3,0,0,0,0-11.41,6.38,6.38,0,0,0-9.77,0,9.46,9.46,0,0,0,0,11.44,6.2,6.2,0,0,0,4.93,2.24" transform="translate(-176.96 -35.45)"/><path class="cls-6" d="M356.65,83.84a14.53,14.53,0,0,1-1,5.49,14.09,14.09,0,0,1-3,4.58A14.42,14.42,0,0,1,348,97a13.79,13.79,0,0,1-10.7,0,13.85,13.85,0,0,1-4.51-3.09,13.63,13.63,0,0,1-3.06-4.6,14.83,14.83,0,0,1,0-11,14.4,14.4,0,0,1,7.57-7.67,13.45,13.45,0,0,1,5.36-1.09,13.6,13.6,0,0,1,5.37,1.09,13.79,13.79,0,0,1,4.54,3.08,14.11,14.11,0,0,1,3,4.59,14.53,14.53,0,0,1,1,5.49m-14,8a6.16,6.16,0,0,0,4.9-2.26,9.32,9.32,0,0,0,0-11.41,6.39,6.39,0,0,0-9.78,0,9.46,9.46,0,0,0,0,11.44,6.2,6.2,0,0,0,4.93,2.24" transform="translate(-176.96 -35.45)"/><path class="cls-6" d="M358.86,97.41V70.26h6.87l9.87,14c.19.28.5.85.94,1.71s.91,1.88,1.44,3.07c-.15-1.12-.25-2.13-.32-3s-.09-1.66-.09-2.34V70.26h6.83V97.41h-6.83l-9.88-14a15,15,0,0,1-.95-1.71c-.44-.86-.91-1.87-1.42-3,.14,1.14.25,2.15.31,3s.1,1.65.1,2.33V97.41Z" transform="translate(-176.96 -35.45)"/></g></g></svg>