<?xml version="1.0" encoding="UTF-8"?>
<svg id="_Слой_1" data-name="Слой 1" xmlns="http://www.w3.org/2000/svg" viewBox="0 0 226.77 226.77">
  <defs>
    <style>
      .cls-1 {
        fill: #fe9;
      }
    </style>
  </defs>
  <path class="cls-1" d="m67.07,168.73c1.77-3.6,3.37-6.8,4.91-10.04.3-.64.52-1.39.52-2.09,0-28.42-.05-56.83.02-85.25,0-2.59-1.21-4.54-2.16-6.68-.8-1.81-1.81-3.52-2.66-5.31-.55-1.16.24-1.34,1.15-1.34,3.13,0,6.26,0,9.4,0,5.11,0,10.22,0,15.34,0,2.57,0,2.56,0,2.56,2.53,0,26.44,0,52.87,0,79.31,0,1.98.05,3.96,0,5.93-.03,1.31.38,1.81,1.82,1.81,13.59-.06,27.17-.03,40.76-.03,1.97,0,2.02.04,1.48,1.93-1.67,5.87-3.4,11.73-5.01,17.61-.35,1.27-.92,1.64-2.2,1.64-14.32-.04-28.65-.02-42.97-.02-7,0-14,0-21,0-.53,0-1.07,0-1.96,0Z"/>
  <path class="cls-1" d="m121.71,142.38c-6.31,0-12.61-.02-18.92.02-1.12,0-1.43-.41-1.43-1.45.03-6.25.02-12.51.02-18.76,0-12.89,0-25.78,0-38.67,0-.32,0-.64,0-.97.02-3.57.03-3.57,3.62-4.24,7.13-1.34,14.18-1.16,21.08,1.22,9.81,3.4,17.27,9.66,22.18,18.82,3.28,6.12,4.78,12.75,4.32,19.68-.3,4.48-1.3,8.8-3.2,13-1.66,3.65-3.83,6.85-6.25,9.97-.77.99-1.62,1.43-2.91,1.42-6.17-.06-12.34-.03-18.5-.03h0Z"/>
  <path class="cls-1" d="m143.42,157.32c1.16-4.1,2.26-8.22,3.52-12.29.3-.97,1.14-1.76,1.71-2.65,1.86-2.89,4.1-5.61,5.47-8.72,1.8-4.11,2.91-8.51,3.45-13.03.55-4.62.19-9.17-.74-13.7-1.27-6.23-3.91-11.84-7.75-16.9-4.96-6.53-11.26-11.31-18.86-14.37-8.06-3.25-16.35-4.07-24.89-2.5-.95.17-1.88.47-2.84.54-.32.02-.95-.5-.97-.8-.09-1.87-.08-3.74,0-5.61.01-.34.43-.88.76-.96,3.76-.98,7.61-1.26,11.49-1.24,6.56.03,12.86,1.31,18.96,3.69,8.92,3.49,16.25,9.1,22.07,16.64,4.6,5.95,7.81,12.63,9.3,20.03,1.23,6.12,1.46,12.26.45,18.49-.9,5.56-2.56,10.82-5.26,15.72-2.25,4.09-4.68,8.07-8.29,11.21-2.48,2.15-4.75,4.54-7.11,6.82-.16-.12-.32-.24-.47-.36Z"/>
  <path class="cls-1" d="m67.12,138.8c-7.75-13.67-7-33.33,0-45.36v45.36Z"/>
</svg>