<?xml version="1.0" encoding="UTF-8"?>
<svg id="_Слой_1" data-name="Слой 1" xmlns="http://www.w3.org/2000/svg" viewBox="0 0 226.77 226.77">
  <defs>
    <style>
      .cls-1 {
        fill: #fe9;
      }
    </style>
  </defs>
  <path class="cls-1" d="m76.14,113.92c.33-.33.56-.56.9-.9h17.59v-17.96h-36.58v-37.3h36.48c.16.17.45.49.87.95v35.58h36v-35.63c.45-.45.68-.68.96-.96h36.36v37.23h-37.14c-.06.51-.19.83-.12,1.11,1.23,5.13.38,10.35.63,15.52.02.42,0,.84,0,1.51h9.31c2.47,0,4.94.06,7.41-.03.88-.03,1.4.32,1.9.94v55.07h-18.56v-18.52h-37.41v18.55h-18.61v-55.15Z"/>
</svg>