<?xml version="1.0" encoding="UTF-8"?>
<svg id="_Слой_1" data-name="Слой 1" xmlns="http://www.w3.org/2000/svg" viewBox="0 0 226.77 226.77">
  <defs>
    <style>
      .cls-1 {
        fill: #fe9;
      }
    </style>
  </defs>
  <path class="cls-1" d="m113.42,123.26c6.23-6.74,13.48-12.65,20.35-19.38v39.99c8.19,8.19,15.74,16.91,24.9,25.03-1.5,0-2.11,0-2.72,0-14.54,0-29.09.05-43.63-.04-5.83-.04-11.59-.99-16.19-4.85-3.9-3.27-7.37-7.06-10.99-10.67-6.33-6.29-12.64-12.6-18.92-18.93-3.87-3.9-5.9-8.54-5.88-14.12.06-16.18.02-32.35.02-48.53,0-.46,0-.93,0-1.51,6.06,5.05,10.67,11.34,16.31,16.7v44.78c5.4,5.14,10.94,10.42,16.32,15.54v-43.79c6.88,6.66,13.74,13.3,20.43,19.78Z"/>
  <path class="cls-1" d="m150.12,136.74v-42.14c-5.02-4.88-10.19-9.91-15.39-14.96-6.95,6.99-14.02,14.1-21.21,21.33-14.2-14.31-28.22-28.43-42.24-42.56.14-.17.27-.35.41-.52.42,0,.85,0,1.27,0,16.18,0,32.36-.05,48.54.02,4.36.02,7.73,2.51,10.62,5.41,8.52,8.55,16.97,17.18,25.29,25.92,2.35,2.47,5,4.69,6.93,7.6,1.48,2.23,2.03,4.68,2.04,7.17.09,16.29.05,32.58.05,48.87,0,.16-.03.33-.07.68-5.35-5.54-10.57-10.95-16.25-16.82Z"/>
  <path class="cls-1" d="m166.38,81.8c-7.64-7.56-15.97-15.81-24.08-23.85h24.08v23.85Z"/>
  <path class="cls-1" d="m60.37,168.84v-25.81c8.51,8.49,16.95,16.92,25.86,25.81h-25.86Z"/>
</svg>