<svg id="Слой_1" data-name="Слой 1" xmlns="http://www.w3.org/2000/svg" xmlns:xlink="http://www.w3.org/1999/xlink" viewBox="0 0 639.89 294.88"><defs><style>.cls-1{fill:none;}.cls-2{clip-path:url(#clip-path);}.cls-3{clip-path:url(#clip-path-2);}.cls-4{fill:#fe9;}.cls-5{fill:#1d1635;}.cls-6{fill:#736daf;}</style><clipPath id="clip-path" transform="translate(-341.2 -2639.44)"/><clipPath id="clip-path-2" transform="translate(-341.2 -2639.44)"><rect class="cls-1" width="1860.28" height="3360.89"/></clipPath></defs><title>obl</title><g class="cls-2"><g class="cls-3"><path class="cls-4" d="M981.09,2758.06c0,65.5-89.47,118.61-199.83,118.61-66.12,0-124.73-19.05-161.11-48.41H588.22l15.62-15.57c-.16-.17-.32-.36-.47-.53-14-16.22-22-34.61-22-54.1,0-65.51,89.47-118.62,199.84-118.62s199.83,53.11,199.83,118.62" transform="translate(-341.2 -2639.44)"/></g><g class="cls-3"><path class="cls-5" d="M341.2,2824.69a109.64,109.64,0,1,0,109.64-109.64A109.64,109.64,0,0,0,341.2,2824.69" transform="translate(-341.2 -2639.44)"/><path class="cls-4" d="M536.7,2844.8a87,87,0,1,1,0-40.24,55.84,55.84,0,1,0,0,40.24" transform="translate(-341.2 -2639.44)"/><path class="cls-6" d="M523.29,2793.72v62.43a49.25,49.25,0,0,1-12.38,10.72v-59l-21.66,49.78h-8.84L458.76,2809v57a49.19,49.19,0,0,1-12.38-11.52v-59.21a49.12,49.12,0,0,1,13.42-12.19l25,56.29,24.77-55.69a1.17,1.17,0,0,1,1.68-.51,49.16,49.16,0,0,1,12,10.49" transform="translate(-341.2 -2639.44)"/></g></g></svg>